<svg width="736" height="400" viewBox="0 0 736 400" fill="none" xmlns="http://www.w3.org/2000/svg">
<path d="M195.454 339.938L295.141 161.707L365.775 35.4316C377.455 14.5492 399.526 1.60742 423.465 1.60742H501.172L351.915 259.985L281.252 382.307C267.623 405.898 233.552 405.898 219.922 382.307L195.454 339.938Z" fill="url(#paint0_linear_214_544)"/>
<path d="M132.845 231.588L195.02 120.43L235.148 189.88L172.973 301.039L132.845 231.588Z" fill="url(#paint1_linear_214_544)"/>
<path d="M0 1.60449H88.2201C111.834 1.60449 133.654 14.1924 145.457 34.6313L172.55 81.5293L110.375 192.664L0 1.60449Z" fill="url(#paint2_linear_214_544)"/>
<path d="M195.02 120.43L139.185 242.558L132.845 231.588L195.02 120.43Z" fill="url(#paint3_linear_214_544)"/>
<path d="M263.378 218.502L205.821 357.884L195.454 339.941L263.378 218.502Z" fill="url(#paint4_linear_214_544)"/>
<path fill-rule="evenodd" clip-rule="evenodd" d="M516.082 380.704L736.006 0H571.505C552.692 0 534.989 7.99722 522.596 21.609C522.593 21.6126 522.59 21.6161 522.587 21.6197L522.593 21.6064C519.454 25.0743 516.645 28.8723 514.261 33.0243L420.795 194.828L384.069 258.382L397.178 281.07L397.172 281.08L454.74 380.713C463.042 395.08 478.927 400.695 493.157 397.558C493.419 397.5 493.68 397.44 493.94 397.376C502.776 395.224 510.904 389.666 516.082 380.704Z" fill="url(#paint5_linear_214_544)"/>
<defs>
<linearGradient id="paint0_linear_214_544" x1="348.313" y1="1.60742" x2="378.539" y2="402.086" gradientUnits="userSpaceOnUse">
<stop stop-color="#FE0133"/>
<stop offset="1" stop-color="#EF971F"/>
</linearGradient>
<linearGradient id="paint1_linear_214_544" x1="183.997" y1="120.43" x2="202.473" y2="301.129" gradientUnits="userSpaceOnUse">
<stop stop-color="#FE0133"/>
<stop offset="1" stop-color="#EF971F"/>
</linearGradient>
<linearGradient id="paint2_linear_214_544" x1="86.2751" y1="1.60449" x2="98.6115" y2="193.968" gradientUnits="userSpaceOnUse">
<stop stop-color="#FE0133"/>
<stop offset="1" stop-color="#EF971F"/>
</linearGradient>
<linearGradient id="paint3_linear_214_544" x1="163.933" y1="120.43" x2="177.8" y2="242.319" gradientUnits="userSpaceOnUse">
<stop stop-color="#FE0133"/>
<stop offset="1" stop-color="#EF971F"/>
</linearGradient>
<linearGradient id="paint4_linear_214_544" x1="229.416" y1="218.502" x2="245.93" y2="357.45" gradientUnits="userSpaceOnUse">
<stop stop-color="#FE0133"/>
<stop offset="1" stop-color="#EF971F"/>
</linearGradient>
<linearGradient id="paint5_linear_214_544" x1="560.038" y1="0" x2="560.038" y2="398.401" gradientUnits="userSpaceOnUse">
<stop stop-color="#6747E7"/>
<stop offset="1" stop-color="#B800DF"/>
</linearGradient>
</defs>
</svg>
